<?xml version="1.0" encoding="UTF-8"?>
<svg id="a"
    xmlns="http://www.w3.org/2000/svg" viewBox="0 0 275.13 72.01">
    <defs>
        <style>.b{fill:#fff;}</style>
    </defs>
    <polygon class="b" points="105.77 52 93.83 18.05 98.68 18.05 108.38 47.48 108.47 47.48 118.27 18.05 122.98 18.05 110.9 52 105.77 52"/>
    <path class="b" d="M144.28,37.97l-5.66-15.84h-.1l-5.75,15.84h11.51Zm-3.14-19.92l13.27,33.95h-4.99l-3.71-10.22h-14.36l-3.8,10.22h-4.61l13.22-33.95h4.99Z"/>
    <polygon class="b" points="164.72 18.05 164.72 48.2 182.7 48.2 182.7 52 160.21 52 160.21 18.05 164.72 18.05"/>
    <path class="b" d="M201.62,34.31c2.57,.03,4.44-.49,5.63-1.57,1.19-1.08,1.78-2.63,1.78-4.66s-.6-3.57-1.78-4.64c-1.19-1.06-3.07-1.59-5.63-1.59h-8.84v12.46h8.84Zm1.52-16.26c3.42,0,6.01,.88,7.77,2.64,1.76,1.76,2.64,4.22,2.64,7.39s-.88,5.64-2.64,7.42c-1.76,1.78-4.35,2.65-7.77,2.62h-10.36v13.88h-4.52V18.05h14.88Z"/>
    <path class="b" d="M234.38,37.97l-5.66-15.84h-.1l-5.75,15.84h11.51Zm-3.14-19.92l13.27,33.95h-4.99l-3.71-10.22h-14.36l-3.8,10.22h-4.61l13.22-33.95h4.99Z"/>
    <path class="b" d="M266.79,22.69c-1.51-1.09-3.43-1.64-5.78-1.64-.95,0-1.89,.1-2.81,.29-.92,.19-1.74,.51-2.45,.95-.71,.44-1.28,1.04-1.71,1.78-.43,.75-.64,1.67-.64,2.78,0,1.05,.31,1.89,.93,2.54,.62,.65,1.44,1.18,2.47,1.59,1.03,.41,2.2,.75,3.49,1.02s2.62,.56,3.97,.88c1.35,.32,2.67,.69,3.97,1.12,1.3,.43,2.46,1.01,3.49,1.73,1.03,.73,1.86,1.65,2.47,2.76,.62,1.11,.93,2.51,.93,4.19,0,1.81-.4,3.35-1.21,4.64-.81,1.28-1.85,2.33-3.12,3.14-1.27,.81-2.69,1.39-4.25,1.76-1.57,.36-3.13,.55-4.69,.55-1.9,0-3.7-.24-5.4-.71-1.7-.48-3.18-1.2-4.47-2.16-1.28-.97-2.3-2.2-3.04-3.71-.75-1.5-1.12-3.29-1.12-5.35h4.28c0,1.43,.28,2.65,.83,3.68,.55,1.03,1.29,1.88,2.19,2.54,.9,.66,1.96,1.16,3.16,1.47,1.21,.32,2.44,.47,3.71,.47,1.01,0,2.04-.09,3.07-.29,1.03-.19,1.96-.51,2.78-.97,.83-.46,1.49-1.08,2-1.88,.51-.79,.76-1.81,.76-3.04,0-1.17-.31-2.12-.93-2.85-.62-.73-1.44-1.32-2.47-1.78-1.03-.46-2.2-.83-3.49-1.12-1.3-.29-2.62-.58-3.97-.88-1.35-.3-2.67-.65-3.97-1.05-1.3-.4-2.46-.92-3.49-1.57-1.03-.65-1.85-1.49-2.47-2.52-.62-1.03-.93-2.32-.93-3.87,0-1.71,.35-3.19,1.05-4.45,.7-1.25,1.62-2.28,2.78-3.09,1.16-.81,2.47-1.41,3.95-1.81,1.47-.4,2.99-.59,4.54-.59,1.74,0,3.36,.21,4.85,.62,1.49,.41,2.8,1.06,3.92,1.95,1.13,.89,2.01,2,2.66,3.35,.65,1.35,1.01,2.96,1.07,4.83h-4.28c-.26-2.44-1.13-4.21-2.64-5.3"/>
    <path class="b" d="M58.19,3.6c-2.11-1.42-4.38-2.63-6.77-3.6l-3.62,6.81-11.14,21-5.46-10.99h-8.56l13.8,27.77L54.57,10.42c7.57,5.39,12.52,14.23,12.52,24.21,0,16.38-13.33,29.71-29.71,29.71S7.67,51.01,7.67,34.63c0-9.74,4.71-18.41,11.98-23.83,2.05-1.53,4.3-2.79,6.7-3.75L22.93,.16c-2.38,1-4.63,2.24-6.73,3.69C6.42,10.6,0,21.88,0,34.63c0,20.61,16.77,37.38,37.38,37.38s37.38-16.77,37.38-37.38c0-12.91-6.58-24.31-16.57-31.03"/>
</svg>