<?xml version="1.0" encoding="UTF-8"?><svg id="a" xmlns="http://www.w3.org/2000/svg" viewBox="0 0 182.92 176.2"><defs><style>.b{fill:none;}.c{fill:#fff;}</style></defs><path class="c" d="M142.39,8.81C137.22,5.33,131.67,2.38,125.82,0l-8.85,16.67-27.27,51.39-13.36-26.88h-20.95l33.76,67.95L133.53,25.51c18.52,13.19,30.63,34.82,30.63,59.23,0,40.09-32.61,72.7-72.7,72.7S18.77,124.83,18.77,84.74c0-23.84,11.54-45.04,29.32-58.3,5-3.73,10.51-6.82,16.39-9.18L56.1,.4c-5.82,2.45-11.33,5.49-16.46,9.04C15.72,25.95,0,53.54,0,84.74c0,50.43,41.03,91.46,91.46,91.46s91.46-41.03,91.46-91.46c0-31.59-16.1-59.49-40.53-75.93"/><rect class="b" x="0" width="182.92" height="176.2"/></svg>